<svg xmlns="http://www.w3.org/2000/svg" width="261.811" height="36" viewBox="0 0 261.811 36">
  <g id="Grupo_4988" data-name="Grupo 4988" transform="translate(-842.916 -72.138)">
    <g id="Grupo_4731" data-name="Grupo 4731" transform="translate(842.916 72.138)">
      <g id="Grupo_2161" data-name="Grupo 2161" transform="translate(0 0)">
        <path id="Trazado_41495" data-name="Trazado 41495" d="M22-168.485a5.894,5.894,0,0,0-3.222.962L11.608-162.8a.217.217,0,0,0-.1.182.215.215,0,0,0-.1-.182l-7.166-4.721a5.894,5.894,0,0,0-3.222-.962,5.866,5.866,0,0,0-5.863,6.21,5.919,5.919,0,0,0,5.654,5.525,5.8,5.8,0,0,0,3.431-.959l.055-.04,7.11-4.689a.214.214,0,0,0,.1-.18.216.216,0,0,0,.1.18l7.112,4.689.055.04a5.8,5.8,0,0,0,3.431.959,5.919,5.919,0,0,0,5.654-5.525A5.866,5.866,0,0,0,22-168.485Z" transform="translate(4.848 174.821)" fill="#ef842c"/>
        <path id="Trazado_41496" data-name="Trazado 41496" d="M14.852-156.892a.22.22,0,0,0,.211-.282,7.191,7.191,0,0,0-6.881-5.086,7.188,7.188,0,0,0-6.873,5.086.223.223,0,0,0,.214.282Z" transform="translate(8.165 178.178)" fill="#ef842c"/>
        <path id="Trazado_41497" data-name="Trazado 41497" d="M15.25-157.532H1.332a.224.224,0,0,0-.223.229,7.207,7.207,0,0,0,.737,2.859.223.223,0,0,0,.2.123H14.541a.222.222,0,0,0,.2-.123,7.061,7.061,0,0,0,.731-2.859A.222.222,0,0,0,15.25-157.532Z" transform="translate(8.062 180.728)" fill="#ef842c"/>
        <path id="Trazado_41498" data-name="Trazado 41498" d="M2.607-154.205a.13.13,0,0,0-.108.2l.539.816a.318.318,0,0,0,.266.145h8.488a.32.32,0,0,0,.268-.145L12.6-154a.128.128,0,0,0-.1-.2Z" transform="translate(8.8 182.522)" fill="#ef842c"/>
        <path id="Trazado_41499" data-name="Trazado 41499" d="M4.062-152.209a.218.218,0,0,0-.183.337L6.629-147.7a.217.217,0,0,0,.363,0l2.754-4.175a.218.218,0,0,0-.182-.337Z" transform="translate(9.536 183.599)" fill="#ef842c"/>
        <path id="Trazado_41500" data-name="Trazado 41500" d="M2.18-171.641l.106.009a4.95,4.95,0,0,1,3.39,1.707,5.155,5.155,0,0,0-2.848,3.733.225.225,0,0,0,.1.225l4.863,3.2a.219.219,0,0,0,.24,0l4.863-3.2a.229.229,0,0,0,.1-.225,5.161,5.161,0,0,0-2.849-3.733,4.95,4.95,0,0,1,3.39-1.707l.106-.009a.376.376,0,0,0,.346-.4l-.017-.214a.374.374,0,0,0-.4-.345l-.108.008A5.9,5.9,0,0,0,9.2-170.268a5.068,5.068,0,0,0-1.3-.185,5.09,5.09,0,0,0-1.3.185,5.9,5.9,0,0,0-4.252-2.324l-.108-.008a.374.374,0,0,0-.4.345l-.017.214A.376.376,0,0,0,2.18-171.641Z" transform="translate(8.452 172.601)" fill="#ef842c"/>
      </g>
      <path id="Trazado_41501" data-name="Trazado 41501" d="M30.67-146.782V-167.6a.587.587,0,0,1,.588-.586h3.771a.9.9,0,0,1,.705.339l9,11.277a.3.3,0,0,0,.539-.189v-10.848a.579.579,0,0,1,.58-.579H50.3a.588.588,0,0,1,.59.588v20.818a.586.586,0,0,1-.586.586H46.558a.907.907,0,0,1-.708-.342l-9.268-11.585a.153.153,0,0,0-.272.1v11.24a.591.591,0,0,1-.59.591H31.256a.586.586,0,0,1-.586-.586" transform="translate(24.006 174.981)" fill="#ef842c"/>
      <path id="Trazado_41502" data-name="Trazado 41502" d="M71.605-168.189a.458.458,0,0,1,.457.459v11.919c0,5.668-3.551,10.038-10.121,10.038-6.6,0-10.1-4.37-10.1-10.038V-167.74a.45.45,0,0,1,.449-.449H57.06a.426.426,0,0,1,.426.426v11.614c0,3.186,1.522,4.935,4.455,4.935,2.96,0,4.51-1.749,4.51-4.935v-11.605a.436.436,0,0,1,.436-.436Z" transform="translate(35.427 174.98)" fill="#ef842c"/>
      <path id="Trazado_41503" data-name="Trazado 41503" d="M72.6-168.189H91.04a.448.448,0,0,1,.446.448v4.589a.434.434,0,0,1-.434.434H85.069a.436.436,0,0,0-.434.436v15.654a.433.433,0,0,1-.434.433H79.432a.434.434,0,0,1-.436-.436v-15.652a.435.435,0,0,0-.436-.434H72.577a.435.435,0,0,1-.434-.434v-4.583a.454.454,0,0,1,.454-.454" transform="translate(46.374 174.98)" fill="#ef842c"/>
      <path id="Trazado_41504" data-name="Trazado 41504" d="M97.74-162.61v4.977a.441.441,0,0,0,.44.442h4.381a2.749,2.749,0,0,0,3.1-2.9c0-1.692-.845-2.96-3.1-2.96H98.187a.447.447,0,0,0-.446.446m5.131-5.579c5.64,0,8.234,3.665,8.234,8.037a7.7,7.7,0,0,1-4.13,7.2.2.2,0,0,0-.077.289l4.3,6.008a.288.288,0,0,1-.234.457h-5.622a1.074,1.074,0,0,1-.874-.451l-3.678-5.194a.589.589,0,0,0-.479-.248H98.179a.438.438,0,0,0-.439.439v5.008a.448.448,0,0,1-.448.446H92.568a.439.439,0,0,1-.44-.439V-167.75a.44.44,0,0,1,.44-.439Z" transform="translate(57.153 174.98)" fill="#ef842c"/>
      <path id="Trazado_41505" data-name="Trazado 41505" d="M117.79-167.752v21.114a.445.445,0,0,1-.443.443H112.58a.43.43,0,0,1-.429-.433v-21.125a.434.434,0,0,1,.436-.436h4.767a.435.435,0,0,1,.436.436" transform="translate(67.953 174.981)" fill="#ef842c"/>
      <path id="Trazado_41506" data-name="Trazado 41506" d="M152.422-160.212l-1.986,5.289a.3.3,0,0,0,.282.409h3.951a.3.3,0,0,0,.283-.408l-1.966-5.291a.3.3,0,0,0-.565,0m3.263-7.51,8.286,20.518a.734.734,0,0,1-.68,1.01h-4.549a.74.74,0,0,1-.69-.477l-.853-2.261a.735.735,0,0,0-.688-.477h-7.638a.739.739,0,0,0-.69.479l-.853,2.258a.737.737,0,0,1-.69.479H142.1a.738.738,0,0,1-.682-1.016l8.311-20.515a.744.744,0,0,1,.688-.463H155a.744.744,0,0,1,.69.466" transform="translate(83.708 174.98)" fill="#ef842c"/>
      <path id="Trazado_41507" data-name="Trazado 41507" d="M141.252-161.485a.437.437,0,0,1-.436.437h-4.644a.455.455,0,0,1-.437-.437h0c-.151-1.013-1.251-2.1-3.365-2.1-1.92,0-2.68.76-2.68,1.493,0,.874,1.016,1.325,3.638,2.227,3.045,1.073,8.234,2.877,8.234,7.7,0,4.286-3.722,6.542-8.74,6.542-5.2,0-9.213-2.389-9.33-6.584a.438.438,0,0,1,.436-.439h4.667c.242,0,.362.217.437.443.24.8,1.405,1.7,3.676,1.7,2.115,0,2.791-.705,2.791-1.353,0-.93-1.1-1.493-3.75-2.4-3.5-1.155-8.091-2.848-8.091-7.387,0-4.2,3.581-6.824,8.6-6.824,5.083,0,8.921,2.683,8.994,6.979" transform="translate(74.069 174.832)" fill="#ef842c"/>
      <path id="Trazado_41508" data-name="Trazado 41508" d="M164.23-153.638v.593h.409a.311.311,0,0,0,.325-.306.292.292,0,0,0-.325-.286Zm.744,1.736-.362-.639h-.382v.639h-.525v-2.243h.964a.777.777,0,0,1,.831.793.782.782,0,0,1-.393.707l.439.743Zm-.439.65a1.712,1.712,0,0,0,1.719-1.718,1.711,1.711,0,0,0-1.719-1.716,1.71,1.71,0,0,0-1.718,1.716,1.711,1.711,0,0,0,1.718,1.718m0-4.036a2.322,2.322,0,0,1,2.32,2.318,2.322,2.322,0,0,1-2.32,2.32,2.322,2.322,0,0,1-2.318-2.32,2.322,2.322,0,0,1,2.318-2.318" transform="translate(94.956 181.938)" fill="#ef842c"/>
    </g>
  </g>
</svg>
